<svg width="393" height="852" viewBox="0 0 393 852" fill="none" xmlns="http://www.w3.org/2000/svg">
<g clip-path="url(#clip0_701_10491)">
<rect width="393" height="852" fill="url(#paint0_linear_701_10491)"/>
<path opacity="0.44" d="M0 558.5C15.663 554.368 52.9696 548.087 76.8913 556.021C86.5739 560.153 110.04 565.938 126.443 556.021C133.563 550.511 152.416 541.806 170.87 551.062C174.287 552.715 185.564 559.162 203.335 571.723C213.587 578.886 238.876 589.574 258.013 575.029C269.404 565.112 302.952 549.245 346.011 565.112L393 581.64" stroke="white" stroke-width="0.839743" stroke-linecap="round"/>
<path opacity="0.5" d="M56.9443 686.245C55.41 687.172 53.5139 689.094 52.4125 690.328C52.1565 690.615 52.0898 691.037 52.3582 691.313C54.1237 693.123 60.4207 693.763 63.7912 693.864C63.9471 693.869 64.0994 693.911 64.2385 693.981C68.1227 695.952 70.947 694.673 72.2791 693.422C72.6114 693.11 73.0902 692.972 73.5251 693.108C77.7548 694.431 80.7868 692.173 81.8143 690.802C82.3989 690.119 83.4177 687.681 82.8164 683.384C82.0648 678.013 78.5572 677.245 77.054 676.734C75.904 676.343 73.5934 674.985 72.444 674.27C72.3439 674.208 72.2328 674.163 72.1169 674.141C66.7923 673.133 63.1931 677.764 61.7916 680.721C61.617 681.09 61.2499 681.326 60.8466 681.387C58.5588 681.73 57.7347 683.821 57.5531 685.299C57.5053 685.689 57.2801 686.042 56.9443 686.245Z" fill="#726A7F"/>
<path opacity="0.5" d="M104.533 652C105.167 652 105.628 654.46 105.864 656.364C105.939 656.971 106.52 657.39 107.118 657.26C112.048 656.187 120.685 655.036 123.194 657.52C125.758 660.059 125.065 663.082 124.299 664.489C124.215 664.644 124.161 664.815 124.151 664.991C123.909 669.318 121.828 671.419 120.4 672.156C120.05 672.337 119.772 672.655 119.687 673.04C118.926 676.47 116.078 678.42 114.289 679.161C113.956 679.298 113.699 679.58 113.608 679.928C112.212 685.325 108.173 687.016 105.829 687.252C105.476 687.287 105.156 687.477 104.91 687.731C104.026 688.642 101.951 689.629 98.4737 688.482C94.7154 687.241 93.9719 677.589 94.0703 671.832C94.0818 671.159 93.4497 670.65 92.7846 670.754C91.2159 670.999 89.3164 671.022 89.0217 670.001C88.6339 668.657 93.5457 662.88 96.0501 660.16C98.5545 657.44 103.757 652 104.533 652Z" fill="#726A7F"/>
<path opacity="0.5" d="M317.607 702.141C318.386 700.892 323.028 708.23 325.795 712.973C326.135 713.556 326.943 713.648 327.412 713.163C330.896 709.561 336.663 704.389 337.726 706.58C338.776 708.747 334.663 714.053 331.84 717.147C331.405 717.624 331.506 718.384 332.053 718.726C336.275 721.362 342.581 726.005 340.637 727.73C338.798 729.364 333.162 726.517 329.544 724.257C328.884 723.845 328.002 724.279 327.937 725.054C327.53 729.868 326.454 737 324.49 737C322.456 737 321.965 729.354 321.963 724.553C321.963 723.908 321.371 723.421 320.739 723.548C316.275 724.439 309.197 725.501 309.004 724.075C308.806 722.614 316.418 719.148 321.025 717.275C321.545 717.063 321.794 716.467 321.575 715.95L317.607 706.58C317.254 705.666 316.76 703.499 317.607 702.141Z" fill="#726A7F"/>
<path opacity="0.5" d="M298.651 684.331C299.546 683.95 299.333 689.458 299.046 693.22C298.994 693.893 299.604 694.431 300.267 694.308C303.644 693.687 308.498 693.164 308.247 694.747C308 696.306 303.975 697.619 301.169 698.281C300.54 698.429 300.187 699.113 300.436 699.71C301.752 702.867 303.288 707.586 301.583 707.783C300.007 707.965 298.096 704.609 296.915 701.969C296.598 701.259 295.623 701.11 295.119 701.702C292.992 704.201 289.889 707.368 288.842 706.637C287.741 705.867 290.213 701.692 292.08 698.972C292.445 698.44 292.238 697.701 291.649 697.438C288.79 696.164 284.757 694.115 285.189 693.274C285.637 692.403 290.959 693.361 294.32 694.113C294.869 694.236 295.416 693.89 295.532 693.339L296.908 686.826C297.068 686.174 297.641 684.761 298.651 684.331Z" fill="#726A7F"/>
<circle cx="91" cy="30" r="1" fill="white"/>
<circle cx="324" cy="49" r="1" fill="white"/>
<circle cx="309" cy="164" r="1" fill="white"/>
<circle cx="321" cy="308" r="1" fill="white"/>
<circle cx="43" cy="69" r="1" fill="white"/>
<circle cx="159" cy="43" r="1" fill="white"/>
<circle cx="185" cy="108" r="1" fill="white"/>
<circle cx="141" cy="157" r="1" fill="white"/>
<circle cx="244" cy="232" r="1" fill="white"/>
<circle cx="77" cy="218" r="1" fill="white"/>
<circle cx="111" cy="298" r="1" fill="white"/>
<circle cx="188" cy="387" r="1" fill="white"/>
<circle cx="314" cy="512" r="1" fill="white"/>
<circle cx="49" cy="493" r="1" fill="white"/>
</g>
<defs>
<linearGradient id="paint0_linear_701_10491" x1="157.724" y1="100.729" x2="-33.9693" y2="1055.03" gradientUnits="userSpaceOnUse">
<stop stop-color="#293156"/>
<stop offset="0.555" stop-color="#625B72"/>
<stop offset="1" stop-color="#B6ABBA"/>
</linearGradient>
<clipPath id="clip0_701_10491">
<rect width="393" height="852" fill="white"/>
</clipPath>
</defs>
</svg>
