<svg width="28" height="30" viewBox="0 0 28 30" fill="none" xmlns="http://www.w3.org/2000/svg">
<g id="bell-02" filter="url(#filter0_d_500_10089)">
<path id="Icon" d="M11.3333 23.0909C12.041 23.6562 12.9755 24 14 24C15.0245 24 15.959 23.6562 16.6667 23.0909M6.50763 20.1818C6.08602 20.1818 5.85054 19.5194 6.10557 19.1514C6.69736 18.2975 7.26855 17.0451 7.26855 15.537L7.29296 13.3517C7.29296 9.29145 10.2958 6 14 6C17.7588 6 20.8058 9.33993 20.8058 13.4599L20.7814 15.537C20.7814 17.0555 21.3329 18.3147 21.9006 19.169C22.1458 19.5379 21.9097 20.1818 21.4933 20.1818H6.50763Z" stroke="white" stroke-width="2" stroke-linecap="round" stroke-linejoin="round"/>
</g>
<defs>
<filter id="filter0_d_500_10089" x="-3" y="-2" width="34" height="34" filterUnits="userSpaceOnUse" color-interpolation-filters="sRGB">
<feFlood flood-opacity="0" result="BackgroundImageFix"/>
<feColorMatrix in="SourceAlpha" type="matrix" values="0 0 0 0 0 0 0 0 0 0 0 0 0 0 0 0 0 0 127 0" result="hardAlpha"/>
<feOffset/>
<feGaussianBlur stdDeviation="2.5"/>
<feComposite in2="hardAlpha" operator="out"/>
<feColorMatrix type="matrix" values="0 0 0 0 1 0 0 0 0 1 0 0 0 0 1 0 0 0 1 0"/>
<feBlend mode="normal" in2="BackgroundImageFix" result="effect1_dropShadow_500_10089"/>
<feBlend mode="normal" in="SourceGraphic" in2="effect1_dropShadow_500_10089" result="shape"/>
</filter>
</defs>
</svg>
