<svg width="34" height="32" viewBox="0 0 34 32" fill="none" xmlns="http://www.w3.org/2000/svg">
<g id="Vector">
<path id="Vector_2" d="M16.9879 0C7.58387 0 0 6.17756 0 13.6772C0 18.5452 3.15489 22.8077 7.88722 25.2417L6.28551 31.3329C6.25531 31.4242 6.25067 31.5222 6.2721 31.616C6.29353 31.7098 6.34019 31.7957 6.40685 31.8641C6.50406 31.9514 6.62913 31.9997 6.75874 32C6.86621 31.9912 6.96817 31.948 7.04996 31.8765L13.9422 27.1445C14.9596 27.2875 15.9851 27.3617 17.0121 27.3668C26.404 27.3668 34 21.1892 34 13.6772C34 6.16521 26.3797 0 16.9879 0Z" fill="black"/>
</g>
</svg>
