<svg width="58" height="64" viewBox="0 0 58 64" fill="none" xmlns="http://www.w3.org/2000/svg">
<g filter="url(#filter0_d_219_8414)">
<path fill-rule="evenodd" clip-rule="evenodd" d="M41.4455 52.3254C38.5061 56.0005 33.9838 58.3546 28.9118 58.3546C23.8005 58.3546 19.2476 55.964 16.3102 52.2399C15.3363 52.5479 14.2994 52.714 13.2237 52.714C7.5773 52.714 3 48.1367 3 42.4904C3 36.844 7.5773 32.2667 13.2237 32.2667C14.2187 32.2667 15.1805 32.4088 16.09 32.6739C19.0172 28.7868 23.671 26.2734 28.9118 26.2734C34.1164 26.2734 38.7421 28.7522 41.6727 32.5936C42.4952 32.3802 43.358 32.2667 44.2472 32.2667C49.8936 32.2667 54.4709 36.844 54.4709 42.4904C54.4709 48.1367 49.8936 52.714 44.2472 52.714C43.2757 52.714 42.3358 52.5785 41.4455 52.3254Z" fill="white"/>
</g>
<path d="M27.1029 42.0791C27.1865 40.35 26.6199 38.9176 25.8372 38.8797C25.0546 38.8419 24.3523 40.2129 24.2687 41.942C24.185 43.6711 24.7516 45.1035 25.5343 45.1413C26.3169 45.1792 27.0192 43.8082 27.1029 42.0791Z" fill="#151E46"/>
<path d="M33.2334 42.4501C33.406 40.7276 32.9138 39.2679 32.1341 39.1899C31.3545 39.1118 30.5826 40.4448 30.4101 42.1673C30.2375 43.8898 30.7297 45.3494 31.5093 45.4275C32.289 45.5056 33.0609 44.1726 33.2334 42.4501Z" fill="#151E46"/>
<g filter="url(#filter1_d_219_8414)">
<rect x="27.8786" y="0.269231" width="27.4615" height="18.8462" rx="9.42308" fill="white"/>
<rect x="27.8786" y="0.269231" width="27.4615" height="18.8462" rx="9.42308" stroke="white" stroke-width="0.538462"/>
<path d="M31.1094 22.1229V15.0767C31.1094 14.6924 31.5003 14.4319 31.8549 14.5796L36.8287 16.652C37.1825 16.7995 37.2734 17.2588 37.0024 17.5298L32.0286 22.5036C31.6894 22.8428 31.1094 22.6026 31.1094 22.1229Z" fill="white"/>
</g>
<path d="M42.7654 57.9468C42.6128 58.0006 42.3615 58.0006 42.209 57.9468C40.9077 57.5026 38 55.6494 38 52.5083C38 51.1218 39.1173 50 40.4949 50C41.3115 50 42.034 50.3949 42.4872 51.0051C42.9404 50.3949 43.6673 50 44.4795 50C45.8571 50 46.9744 51.1218 46.9744 52.5083C46.9744 55.6494 44.0667 57.5026 42.7654 57.9468Z" fill="#F37B7B" stroke="#F37B7B" stroke-width="0.981197" stroke-linecap="round" stroke-linejoin="round"/>
<defs>
<filter id="filter0_d_219_8414" x="0.360465" y="26.2734" width="56.7498" height="37.3602" filterUnits="userSpaceOnUse" color-interpolation-filters="sRGB">
<feFlood flood-opacity="0" result="BackgroundImageFix"/>
<feColorMatrix in="SourceAlpha" type="matrix" values="0 0 0 0 0 0 0 0 0 0 0 0 0 0 0 0 0 0 127 0" result="hardAlpha"/>
<feOffset dy="2.63953"/>
<feGaussianBlur stdDeviation="1.31977"/>
<feComposite in2="hardAlpha" operator="out"/>
<feColorMatrix type="matrix" values="0 0 0 0 1 0 0 0 0 1 0 0 0 0 1 0 0 0 0.25 0"/>
<feBlend mode="normal" in2="BackgroundImageFix" result="effect1_dropShadow_219_8414"/>
<feBlend mode="normal" in="SourceGraphic" in2="effect1_dropShadow_219_8414" result="shape"/>
</filter>
<filter id="filter1_d_219_8414" x="25.4555" y="0" width="32.3077" height="26.9701" filterUnits="userSpaceOnUse" color-interpolation-filters="sRGB">
<feFlood flood-opacity="0" result="BackgroundImageFix"/>
<feColorMatrix in="SourceAlpha" type="matrix" values="0 0 0 0 0 0 0 0 0 0 0 0 0 0 0 0 0 0 127 0" result="hardAlpha"/>
<feOffset dy="2.15385"/>
<feGaussianBlur stdDeviation="1.07692"/>
<feComposite in2="hardAlpha" operator="out"/>
<feColorMatrix type="matrix" values="0 0 0 0 1 0 0 0 0 1 0 0 0 0 1 0 0 0 0.25 0"/>
<feBlend mode="normal" in2="BackgroundImageFix" result="effect1_dropShadow_219_8414"/>
<feBlend mode="normal" in="SourceGraphic" in2="effect1_dropShadow_219_8414" result="shape"/>
</filter>
</defs>
</svg>
