<svg width="37" height="28" viewBox="0 0 37 28" fill="none" xmlns="http://www.w3.org/2000/svg">
<g filter="url(#filter0_d_246_23338)">
<path fill-rule="evenodd" clip-rule="evenodd" d="M18.9355 1.7433C17.7842 0.662208 16.235 0 14.531 0C11.5625 0 9.06346 2.00988 8.32041 4.74305C4.81928 4.80443 2 7.66174 2 11.1775C2 14.6205 4.70377 17.432 8.10389 17.6046C8.27584 21.0053 11.0876 23.7097 14.531 23.7097C16.235 23.7097 17.7842 23.0475 18.9355 21.9664C20.0868 23.0475 21.636 23.7097 23.3399 23.7097C26.8073 23.7097 29.6341 20.9676 29.7703 17.5337C32.8432 17.0478 35.1926 14.387 35.1926 11.1775C35.1926 7.89645 32.7372 5.18888 29.5637 4.79209C28.8373 2.03395 26.3262 0 23.3399 0C21.636 0 20.0868 0.662208 18.9355 1.7433Z" fill="white"/>
</g>
<path d="M17.1754 11.255C17.2144 10.3626 16.5947 9.60437 15.7913 9.56134C14.9879 9.51831 14.3049 10.2068 14.2659 11.0991C14.2269 11.9915 14.8466 12.7497 15.6501 12.7928C16.4535 12.8358 17.1364 12.1473 17.1754 11.255Z" fill="#151E46"/>
<path d="M23.9498 11.255C23.9889 10.3626 23.3692 9.60437 22.5657 9.56134C21.7623 9.51831 21.0793 10.2068 21.0403 11.0991C21.0013 11.9915 21.621 12.7497 22.4245 12.7928C23.2279 12.8358 23.9108 12.1473 23.9498 11.255Z" fill="#151E46"/>
<defs>
<filter id="filter0_d_246_23338" x="0.211928" y="0" width="36.7685" height="27.2861" filterUnits="userSpaceOnUse" color-interpolation-filters="sRGB">
<feFlood flood-opacity="0" result="BackgroundImageFix"/>
<feColorMatrix in="SourceAlpha" type="matrix" values="0 0 0 0 0 0 0 0 0 0 0 0 0 0 0 0 0 0 127 0" result="hardAlpha"/>
<feOffset dy="1.78807"/>
<feGaussianBlur stdDeviation="0.894036"/>
<feComposite in2="hardAlpha" operator="out"/>
<feColorMatrix type="matrix" values="0 0 0 0 1 0 0 0 0 1 0 0 0 0 1 0 0 0 0.25 0"/>
<feBlend mode="normal" in2="BackgroundImageFix" result="effect1_dropShadow_246_23338"/>
<feBlend mode="normal" in="SourceGraphic" in2="effect1_dropShadow_246_23338" result="shape"/>
</filter>
</defs>
</svg>
