<svg width="58" height="38" viewBox="0 0 58 38" fill="none" xmlns="http://www.w3.org/2000/svg">
<g id="Group 1707482043">
<g id="Union" filter="url(#filter0_d_500_10106)">
<path fill-rule="evenodd" clip-rule="evenodd" d="M41.4455 26.0519C38.5061 29.7271 33.9838 32.0812 28.9118 32.0812C23.8005 32.0812 19.2476 29.6906 16.3102 25.9664C15.3363 26.2745 14.2994 26.4406 13.2237 26.4406C7.5773 26.4406 3 21.8633 3 16.2169C3 10.5705 7.5773 5.99325 13.2237 5.99325C14.2187 5.99325 15.1805 6.1354 16.09 6.4005C19.0172 2.51336 23.671 0 28.9118 0C34.1164 0 38.7421 2.47876 41.6727 6.32015C42.4952 6.10678 43.358 5.99325 44.2472 5.99325C49.8936 5.99325 54.4709 10.5705 54.4709 16.2169C54.4709 21.8633 49.8936 26.4406 44.2472 26.4406C43.2757 26.4406 42.3358 26.3051 41.4455 26.0519Z" fill="white"/>
</g>
<path id="Vector" d="M27.1019 15.8061C27.1855 14.0771 26.6189 12.6447 25.8363 12.6068C25.0536 12.5689 24.3513 13.9399 24.2677 15.669C24.184 17.3981 24.7507 18.8305 25.5333 18.8684C26.3159 18.9062 27.0182 17.5352 27.1019 15.8061Z" fill="#151E46"/>
<path id="Vector_2" d="M33.2344 16.1767C33.4069 14.4542 32.9148 12.9945 32.1351 12.9164C31.3555 12.8383 30.5836 14.1714 30.411 15.8939C30.2385 17.6163 30.7307 19.076 31.5103 19.1541C32.29 19.2322 33.0619 17.8991 33.2344 16.1767Z" fill="#151E46"/>
</g>
<defs>
<filter id="filter0_d_500_10106" x="0.360465" y="0" width="56.7498" height="37.3601" filterUnits="userSpaceOnUse" color-interpolation-filters="sRGB">
<feFlood flood-opacity="0" result="BackgroundImageFix"/>
<feColorMatrix in="SourceAlpha" type="matrix" values="0 0 0 0 0 0 0 0 0 0 0 0 0 0 0 0 0 0 127 0" result="hardAlpha"/>
<feOffset dy="2.63953"/>
<feGaussianBlur stdDeviation="1.31977"/>
<feComposite in2="hardAlpha" operator="out"/>
<feColorMatrix type="matrix" values="0 0 0 0 1 0 0 0 0 1 0 0 0 0 1 0 0 0 0.25 0"/>
<feBlend mode="normal" in2="BackgroundImageFix" result="effect1_dropShadow_500_10106"/>
<feBlend mode="normal" in="SourceGraphic" in2="effect1_dropShadow_500_10106" result="shape"/>
</filter>
</defs>
</svg>
