<svg width="58" height="64" viewBox="0 0 58 64" fill="none" xmlns="http://www.w3.org/2000/svg">
<g filter="url(#filter0_d_500_10092)">
<path fill-rule="evenodd" clip-rule="evenodd" d="M41.4455 52.3254C38.5061 56.0005 33.9838 58.3546 28.9118 58.3546C23.8005 58.3546 19.2476 55.964 16.3102 52.2399C15.3363 52.5479 14.2994 52.714 13.2237 52.714C7.5773 52.714 3 48.1367 3 42.4904C3 36.844 7.5773 32.2667 13.2237 32.2667C14.2187 32.2667 15.1805 32.4088 16.09 32.6739C19.0172 28.7868 23.671 26.2734 28.9118 26.2734C34.1164 26.2734 38.7421 28.7522 41.6727 32.5936C42.4952 32.3802 43.358 32.2667 44.2472 32.2667C49.8936 32.2667 54.4709 36.844 54.4709 42.4904C54.4709 48.1367 49.8936 52.714 44.2472 52.714C43.2757 52.714 42.3358 52.5785 41.4455 52.3254Z" fill="white"/>
</g>
<path d="M27.1019 42.0796C27.1855 40.3505 26.6189 38.9181 25.8363 38.8802C25.0536 38.8424 24.3513 40.2134 24.2677 41.9425C24.184 43.6715 24.7507 45.1039 25.5333 45.1418C26.3159 45.1797 27.0182 43.8087 27.1019 42.0796Z" fill="#151E46"/>
<path d="M33.2344 42.4501C33.4069 40.7276 32.9148 39.2679 32.1351 39.1899C31.3555 39.1118 30.5836 40.4448 30.411 42.1673C30.2385 43.8898 30.7307 45.3494 31.5103 45.4275C32.29 45.5056 33.0619 44.1726 33.2344 42.4501Z" fill="#151E46"/>
<g filter="url(#filter1_d_500_10092)">
<rect x="27.8786" y="0.269231" width="27.4615" height="18.8462" rx="9.42308" fill="white"/>
<rect x="27.8786" y="0.269231" width="27.4615" height="18.8462" rx="9.42308" stroke="white" stroke-width="0.538462"/>
<path d="M31.1094 22.1224V15.0762C31.1094 14.692 31.5003 14.4314 31.8549 14.5792L36.8287 16.6516C37.1825 16.799 37.2734 17.2584 37.0024 17.5294L32.0286 22.5032C31.6894 22.8424 31.1094 22.6022 31.1094 22.1224Z" fill="white"/>
</g>
<defs>
<filter id="filter0_d_500_10092" x="0.360465" y="26.2734" width="56.7498" height="37.3601" filterUnits="userSpaceOnUse" color-interpolation-filters="sRGB">
<feFlood flood-opacity="0" result="BackgroundImageFix"/>
<feColorMatrix in="SourceAlpha" type="matrix" values="0 0 0 0 0 0 0 0 0 0 0 0 0 0 0 0 0 0 127 0" result="hardAlpha"/>
<feOffset dy="2.63953"/>
<feGaussianBlur stdDeviation="1.31977"/>
<feComposite in2="hardAlpha" operator="out"/>
<feColorMatrix type="matrix" values="0 0 0 0 1 0 0 0 0 1 0 0 0 0 1 0 0 0 0.25 0"/>
<feBlend mode="normal" in2="BackgroundImageFix" result="effect1_dropShadow_500_10092"/>
<feBlend mode="normal" in="SourceGraphic" in2="effect1_dropShadow_500_10092" result="shape"/>
</filter>
<filter id="filter1_d_500_10092" x="25.4555" y="0" width="32.3077" height="26.9698" filterUnits="userSpaceOnUse" color-interpolation-filters="sRGB">
<feFlood flood-opacity="0" result="BackgroundImageFix"/>
<feColorMatrix in="SourceAlpha" type="matrix" values="0 0 0 0 0 0 0 0 0 0 0 0 0 0 0 0 0 0 127 0" result="hardAlpha"/>
<feOffset dy="2.15385"/>
<feGaussianBlur stdDeviation="1.07692"/>
<feComposite in2="hardAlpha" operator="out"/>
<feColorMatrix type="matrix" values="0 0 0 0 1 0 0 0 0 1 0 0 0 0 1 0 0 0 0.25 0"/>
<feBlend mode="normal" in2="BackgroundImageFix" result="effect1_dropShadow_500_10092"/>
<feBlend mode="normal" in="SourceGraphic" in2="effect1_dropShadow_500_10092" result="shape"/>
</filter>
</defs>
</svg>
