<svg width="37" height="39" viewBox="0 0 37 39" fill="none" xmlns="http://www.w3.org/2000/svg">
<g filter="url(#filter0_d_500_10091)">
<path d="M7.09174 22.5236C7.29607 22.365 7.38479 22.1015 7.32026 21.8488C6.796 19.8028 5.00008 10.7426 13.0817 6.94105C22.2226 2.63945 28.4062 10.4361 28.4062 10.4361C28.4062 10.4361 32.9578 16.3266 30.5731 23.029C30.5624 23.0559 30.5516 23.0855 30.5382 23.1124C30.3984 23.392 30.4763 23.7307 30.7237 23.9243C31.6727 24.6637 33.7644 26.6074 32.7105 28.7179C31.6566 30.8284 28.4707 28.7018 27.2689 27.7608C27.0082 27.5565 26.6371 27.5726 26.4006 27.8065C25.4811 28.7152 22.9727 30.6913 18.9991 30.0622C16.0498 29.5971 13.9958 28.7717 12.7887 28.1587C11.9875 27.7527 11.0304 27.7662 10.2615 28.2313C8.85809 29.0782 6.5164 30.038 4.75274 28.4491C2.48634 26.4085 5.95181 23.4135 7.09712 22.5236H7.09174Z" fill="white"/>
<path d="M18.5904 18.3702C18.6245 17.6657 18.3937 17.0821 18.0748 17.0667C17.7559 17.0513 17.4698 17.6098 17.4357 18.3143C17.4017 19.0188 17.6325 19.6024 17.9514 19.6178C18.2702 19.6332 18.5564 19.0746 18.5904 18.3702Z" fill="black"/>
<path d="M21.0852 18.5242C21.1555 17.8225 20.955 17.2278 20.6373 17.1959C20.3197 17.1641 20.0052 17.7072 19.9349 18.409C19.8646 19.1108 20.0651 19.7055 20.3828 19.7373C20.7004 19.7691 21.0149 19.226 21.0852 18.5242Z" fill="black"/>
</g>
<path d="M17.5541 2.39629C17.5541 2.39629 12.9906 0.295038 12.1663 4.01264C11.342 7.73024 15.7761 9.19034 17.9798 9.70757C18.7772 9.89615 19.623 9.71835 20.2642 9.20112C21.5034 8.20437 23.3029 6.16777 22.942 2.92969C22.4032 -1.91936 17.0153 0.235772 17.5541 2.3909" fill="#FFF693"/>
<defs>
<filter id="filter0_d_500_10091" x="0" y="5.64551" width="37" height="32.5381" filterUnits="userSpaceOnUse" color-interpolation-filters="sRGB">
<feFlood flood-opacity="0" result="BackgroundImageFix"/>
<feColorMatrix in="SourceAlpha" type="matrix" values="0 0 0 0 0 0 0 0 0 0 0 0 0 0 0 0 0 0 127 0" result="hardAlpha"/>
<feOffset dy="4"/>
<feGaussianBlur stdDeviation="2"/>
<feComposite in2="hardAlpha" operator="out"/>
<feColorMatrix type="matrix" values="0 0 0 0 1 0 0 0 0 1 0 0 0 0 1 0 0 0 0.25 0"/>
<feBlend mode="normal" in2="BackgroundImageFix" result="effect1_dropShadow_500_10091"/>
<feBlend mode="normal" in="SourceGraphic" in2="effect1_dropShadow_500_10091" result="shape"/>
</filter>
</defs>
</svg>
