<svg width="53" height="41" viewBox="0 0 53 41" fill="none" xmlns="http://www.w3.org/2000/svg">
<ellipse cx="26.5" cy="31.916" rx="26.5" ry="9" fill="#4E4C68"/>
<g filter="url(#filter0_d_500_10187)">
<path d="M15.0917 22.5236C15.2961 22.365 15.3848 22.1015 15.3203 21.8488C14.796 19.8028 13.0001 10.7426 21.0817 6.94105C30.2226 2.63945 36.4062 10.4361 36.4062 10.4361C36.4062 10.4361 40.9578 16.3266 38.5731 23.029C38.5624 23.0559 38.5516 23.0855 38.5382 23.1124C38.3984 23.392 38.4763 23.7307 38.7237 23.9243C39.6727 24.6637 41.7644 26.6074 40.7105 28.7179C39.6566 30.8284 36.4707 28.7018 35.2689 27.7608C35.0082 27.5565 34.6371 27.5726 34.4006 27.8065C33.4811 28.7152 30.9727 30.6913 26.9991 30.0622C24.0498 29.5971 21.9958 28.7717 20.7887 28.1587C19.9875 27.7527 19.0304 27.7662 18.2615 28.2313C16.8581 29.0782 14.5164 30.038 12.7527 28.4491C10.4863 26.4085 13.9518 23.4135 15.0971 22.5236H15.0917Z" fill="white"/>
<path d="M26.5904 18.3702C26.6245 17.6657 26.3937 17.0821 26.0748 17.0667C25.7559 17.0513 25.4698 17.6098 25.4357 18.3143C25.4017 19.0188 25.6325 19.6024 25.9514 19.6178C26.2702 19.6332 26.5564 19.0746 26.5904 18.3702Z" fill="black"/>
<path d="M29.0862 18.5242C29.1565 17.8225 28.9559 17.2278 28.6383 17.1959C28.3207 17.1641 28.0062 17.7072 27.9359 18.409C27.8656 19.1108 28.0661 19.7055 28.3837 19.7373C28.7014 19.7691 29.0159 19.226 29.0862 18.5242Z" fill="black"/>
</g>
<path d="M25.5541 2.39629C25.5541 2.39629 20.9906 0.295038 20.1663 4.01264C19.342 7.73024 23.7761 9.19034 25.9798 9.70757C26.7772 9.89615 27.623 9.71835 28.2642 9.20112C29.5034 8.20437 31.3029 6.16777 30.942 2.92969C30.4032 -1.91936 25.0153 0.235772 25.5541 2.3909" fill="#FFF693"/>
<defs>
<filter id="filter0_d_500_10187" x="8" y="5.64551" width="37" height="32.5381" filterUnits="userSpaceOnUse" color-interpolation-filters="sRGB">
<feFlood flood-opacity="0" result="BackgroundImageFix"/>
<feColorMatrix in="SourceAlpha" type="matrix" values="0 0 0 0 0 0 0 0 0 0 0 0 0 0 0 0 0 0 127 0" result="hardAlpha"/>
<feOffset dy="4"/>
<feGaussianBlur stdDeviation="2"/>
<feComposite in2="hardAlpha" operator="out"/>
<feColorMatrix type="matrix" values="0 0 0 0 1 0 0 0 0 1 0 0 0 0 1 0 0 0 0.25 0"/>
<feBlend mode="normal" in2="BackgroundImageFix" result="effect1_dropShadow_500_10187"/>
<feBlend mode="normal" in="SourceGraphic" in2="effect1_dropShadow_500_10187" result="shape"/>
</filter>
</defs>
</svg>
