<svg width="25" height="25" viewBox="0 0 25 25" fill="none" xmlns="http://www.w3.org/2000/svg">
<g id="Group 1474">
<path id="Rectangle-path" fill-rule="evenodd" clip-rule="evenodd" d="M2 4.33333C2 3.04467 3.04467 2 4.33333 2H20.6667C21.9553 2 23 3.04467 23 4.33333V20.6667C23 21.9553 21.9553 23 20.6667 23H4.33333C3.04467 23 2 21.9553 2 20.6667V4.33333Z" stroke="#151E46" stroke-width="2.33333" stroke-linecap="round" stroke-linejoin="round"/>
<path id="Oval" fill-rule="evenodd" clip-rule="evenodd" d="M8.41602 10.166C9.38251 10.166 10.166 9.38251 10.166 8.41602C10.166 7.44952 9.38251 6.66602 8.41602 6.66602C7.44952 6.66602 6.66602 7.44952 6.66602 8.41602C6.66602 9.38251 7.44952 10.166 8.41602 10.166Z" stroke="#151E46" stroke-width="2.33333" stroke-linecap="round" stroke-linejoin="round"/>
<path id="Shape" d="M22.9997 16.0003L17.1663 10.167L4.33301 23.0003" stroke="#151E46" stroke-width="2.33333" stroke-linecap="round" stroke-linejoin="round"/>
</g>
</svg>
