<svg width="103" height="103" viewBox="0 0 103 103" fill="none" xmlns="http://www.w3.org/2000/svg">
<circle cx="51.5" cy="51.5" r="51.5" fill="#F3F08C"/>
<path d="M60.5996 56.7059V53H80.3643V56.7059" stroke="#151E46" stroke-width="2.47059" stroke-linecap="round" stroke-linejoin="round"/>
<path d="M66.7764 72.7646H74.1881" stroke="#151E46" stroke-width="2.47059" stroke-linecap="round" stroke-linejoin="round"/>
<path d="M70.4824 53V72.7647" stroke="#151E46" stroke-width="2.47059" stroke-linecap="round" stroke-linejoin="round"/>
<path fill-rule="evenodd" clip-rule="evenodd" d="M27 34.3333C27 33.0447 28.0447 32 29.3333 32H45.6667C46.9553 32 48 33.0447 48 34.3333V50.6667C48 51.9553 46.9553 53 45.6667 53H29.3333C28.0447 53 27 51.9553 27 50.6667V34.3333Z" stroke="#151E46" stroke-width="2.33333" stroke-linecap="round" stroke-linejoin="round"/>
<path fill-rule="evenodd" clip-rule="evenodd" d="M33.416 40.166C34.3825 40.166 35.166 39.3825 35.166 38.416C35.166 37.4495 34.3825 36.666 33.416 36.666C32.4495 36.666 31.666 37.4495 31.666 38.416C31.666 39.3825 32.4495 40.166 33.416 40.166Z" stroke="#151E46" stroke-width="2.33333" stroke-linecap="round" stroke-linejoin="round"/>
<path d="M47.9997 46.0003L42.1663 40.167L29.333 53.0003" stroke="#151E46" stroke-width="2.33333" stroke-linecap="round" stroke-linejoin="round"/>
</svg>
