<svg width="300" height="70" viewBox="0 0 300 70" fill="none" xmlns="http://www.w3.org/2000/svg">
<rect width="300" height="70" rx="12" fill="#FEE502"/>
<path d="M57.9879 19C48.5839 19 41 25.1776 41 32.6772C41 37.5452 44.1549 41.8077 48.8872 44.2417L47.2855 50.3329C47.2553 50.4242 47.2507 50.5222 47.2721 50.616C47.2935 50.7098 47.3402 50.7957 47.4069 50.8641C47.5041 50.9514 47.6291 50.9997 47.7587 51C47.8662 50.9912 47.9682 50.948 48.05 50.8765L54.9422 46.1445C55.9596 46.2875 56.9851 46.3617 58.0121 46.3668C67.404 46.3668 75 40.1892 75 32.6772C75 25.1652 67.3797 19 57.9879 19Z" fill="black"/>
<path d="M99.6484 23.7305C99.6338 31.7285 97.4512 38.5986 87.6953 43.4473L85.9082 40.9863C90.4932 38.7305 93.2324 36.0791 94.7705 32.9443L86.5234 33.7207L86.1133 30.9082L95.752 30.3076C96.0889 29.0625 96.3086 27.7588 96.4111 26.3672H87.4902V23.7305H99.6484ZM103.369 47.5488V21.123H106.621V31.4941H110.547V34.1602H106.621V47.5488H103.369ZM125.576 23.7305C125.562 31.7285 123.379 38.5986 113.623 43.4473L111.836 40.9863C116.421 38.7305 119.16 36.0791 120.698 32.9443L112.451 33.7207L112.041 30.9082L121.68 30.3076C122.017 29.0625 122.236 27.7588 122.339 26.3672H113.418V23.7305H125.576ZM129.297 47.5488V21.123H132.549V31.4941H136.475V34.1602H132.549V47.5488H129.297ZM149.775 22.6172C155.459 22.6318 159.663 25.459 159.648 29.7656C159.663 33.7354 156.25 36.3867 151.387 36.8701V41.7188H161.934V44.3848H137.734V41.7188H148.164V36.8701C143.359 36.3867 139.946 33.7354 139.961 29.7656C139.946 25.459 144.136 22.6318 149.775 22.6172ZM143.154 29.7656C143.14 32.6221 145.908 34.3359 149.775 34.3359C153.701 34.3359 156.455 32.6221 156.455 29.7656C156.455 26.9971 153.701 25.2393 149.775 25.2539C145.908 25.2393 143.14 26.9971 143.154 29.7656ZM194.98 41.8359V44.5312H170.781V41.8359H181.211V37.5293H173.652V28.8574H188.887V25.5762H173.594V22.9395H192.109V31.4355H176.904V34.8633H192.725V37.5293H184.434V41.8359H194.98ZM217.773 23.7012V26.6895C217.773 30.2344 217.773 33.8818 216.807 39.4629L213.496 39.1699C214.521 33.9697 214.521 30.1318 214.521 26.6895V26.3379H199.258V23.7012H217.773ZM196.709 43.9746V41.3086H220.85V43.9746H196.709ZM244.697 21.1523V40.2832H241.416V21.1523H244.697ZM223.105 29.502C223.105 25.6494 226.226 22.8955 230.254 22.8809C234.282 22.8955 237.388 25.6494 237.373 29.502C237.388 33.4131 234.282 36.1523 230.254 36.1523C226.226 36.1523 223.105 33.4131 223.105 29.502ZM226.299 29.502C226.284 31.8457 227.983 33.3105 230.254 33.3105C232.466 33.3105 234.18 31.8457 234.18 29.502C234.18 27.2168 232.466 25.7227 230.254 25.7227C227.983 25.7227 226.284 27.2168 226.299 29.502ZM227.178 47.0801V38.3496H230.459V44.4434H245.43V47.0801H227.178Z" fill="black" fill-opacity="0.85"/>
</svg>
