<svg width="256" height="57" viewBox="0 0 256 57" fill="none" xmlns="http://www.w3.org/2000/svg">
<rect width="256" height="57" rx="12" fill="#FEE500"/>
<path d="M70.99 14C63.2455 14 57 19.5019 57 26.1813C57 30.5168 59.5981 34.3131 63.4954 36.4809L62.1763 41.9059C62.1514 41.9872 62.1476 42.0744 62.1653 42.158C62.1829 42.2416 62.2213 42.3181 62.2762 42.379C62.3563 42.4567 62.4593 42.4997 62.566 42.5C62.6545 42.4922 62.7385 42.4537 62.8059 42.39L68.4818 38.1755C69.3196 38.3029 70.1642 38.369 71.01 38.3735C78.7445 38.3735 85 32.8716 85 26.1813C85 19.4909 78.7245 14 70.99 14Z" fill="black"/>
<path d="M116.324 23.3652C116.317 27.3643 115.226 30.7993 110.348 33.2236L109.454 31.9932C111.747 30.8652 113.116 29.5396 113.885 27.9722L109.762 28.3604L109.557 26.9541L114.376 26.6538C114.544 26.0312 114.654 25.3794 114.706 24.6836H110.245V23.3652H116.324ZM118.185 35.2744V22.0615H119.811V27.2471H121.773V28.5801H119.811V35.2744H118.185ZM129.288 23.3652C129.281 27.3643 128.189 30.7993 123.312 33.2236L122.418 31.9932C124.71 30.8652 126.08 29.5396 126.849 27.9722L122.726 28.3604L122.521 26.9541L127.34 26.6538C127.508 26.0312 127.618 25.3794 127.669 24.6836H123.209V23.3652H129.288ZM131.148 35.2744V22.0615H132.774V27.2471H134.737V28.5801H132.774V35.2744H131.148ZM141.388 22.8086C144.229 22.8159 146.332 24.2295 146.324 26.3828C146.332 28.3677 144.625 29.6934 142.193 29.9351V32.3594H147.467V33.6924H135.367V32.3594H140.582V29.9351C138.18 29.6934 136.473 28.3677 136.48 26.3828C136.473 24.2295 138.568 22.8159 141.388 22.8086ZM138.077 26.3828C138.07 27.811 139.454 28.668 141.388 28.668C143.351 28.668 144.728 27.811 144.728 26.3828C144.728 24.9985 143.351 24.1196 141.388 24.127C139.454 24.1196 138.07 24.9985 138.077 26.3828ZM163.99 32.418V33.7656H151.891V32.418H157.105V30.2646H153.326V25.9287H160.943V24.2881H153.297V22.9697H162.555V27.2178H154.952V28.9316H162.862V30.2646H158.717V32.418H163.99ZM175.387 23.3506V24.8447C175.387 26.6172 175.387 28.4409 174.903 31.2314L173.248 31.085C173.761 28.4849 173.761 26.5659 173.761 24.8447V24.6689H166.129V23.3506H175.387ZM164.854 33.4873V32.1543H176.925V33.4873H164.854ZM188.849 22.0762V31.6416H187.208V22.0762H188.849ZM178.053 26.251C178.053 24.3247 179.613 22.9478 181.627 22.9404C183.641 22.9478 185.194 24.3247 185.187 26.251C185.194 28.2065 183.641 29.5762 181.627 29.5762C179.613 29.5762 178.053 28.2065 178.053 26.251ZM179.649 26.251C179.642 27.4229 180.492 28.1553 181.627 28.1553C182.733 28.1553 183.59 27.4229 183.59 26.251C183.59 25.1084 182.733 24.3613 181.627 24.3613C180.492 24.3613 179.642 25.1084 179.649 26.251ZM180.089 35.04V30.6748H181.729V33.7217H189.215V35.04H180.089Z" fill="black" fill-opacity="0.85"/>
</svg>
