<svg width="57" height="53" viewBox="0 0 57 53" fill="none" xmlns="http://www.w3.org/2000/svg">
<g id="Vector">
<path d="M28.6914 14.9567C28.6914 14.9567 8.16212 5.34901 4.45375 22.3472C0.745394 39.3453 20.693 46.0214 30.6062 48.3863C34.1934 49.2486 37.9987 48.4356 40.8829 46.0706C46.4576 41.5132 54.553 32.2012 52.9291 17.3955C50.5053 -4.77596 26.2676 5.07803 28.6914 14.932" fill="#F3F08C"/>
<path d="M28.6914 14.9567C28.6914 14.9567 8.16211 5.34901 4.45375 22.3472C0.745394 39.3453 20.693 46.0214 30.6062 48.3863C34.1934 49.2486 37.9987 48.4356 40.8829 46.0706C46.4576 41.5132 54.553 32.2012 52.9291 17.3955C50.5053 -4.77596 26.2676 5.07803 28.6914 14.932" stroke="#151E46" stroke-width="7.27129" stroke-miterlimit="10" stroke-linecap="round"/>
</g>
</svg>
