<svg width="54" height="52" viewBox="0 0 54 52" fill="none" xmlns="http://www.w3.org/2000/svg">
<path id="Vector" d="M42.3314 32.2092C41.3444 33.242 40.8854 34.6651 41.069 36.0653C41.4822 39.5082 41.7576 45.9809 38.4524 47.6335C35.6521 49.0337 31.9796 46.1416 29.5696 43.6856C28.0088 42.1019 25.5987 41.7805 23.6707 42.8823C20.572 44.6726 16.0273 46.7384 13.2041 45.3153C10.3809 43.8922 11.0925 38.5901 12.0565 35.0324C12.6074 32.9896 11.804 30.8549 10.0366 29.6843C7.37408 27.917 4 25.1397 4 22.3624C4 19.2178 10.5186 18.2308 14.5813 17.9095C16.5094 17.7718 18.162 16.4634 18.7817 14.6272C20.3884 9.94481 23.6707 4 26.9529 4C30.0516 4 32.1174 10.1055 33.1273 15.5453C33.5863 18.0242 35.8587 19.7228 38.3605 19.4473C42.5839 18.9883 48.4828 18.621 49.9059 20.0671C51.6503 21.8115 45.4071 28.9039 42.3314 32.1633V32.2092Z" fill="#F3F08C" stroke="#151E46" stroke-width="6.88588" stroke-miterlimit="10" stroke-linecap="round"/>
</svg>
