<svg width="22" height="24" viewBox="0 0 22 24" fill="none" xmlns="http://www.w3.org/2000/svg">
<path fill-rule="evenodd" clip-rule="evenodd" d="M7.2616 23.844C7.57916 23.8462 7.83647 23.591 7.86814 23.275C8.20847 19.8787 11.0869 17.2383 14.5682 17.2624C14.5987 17.2628 14.6236 17.2383 14.6239 17.2078L14.6568 12.4548C14.6571 12.4243 14.6325 12.3993 14.602 12.399C8.43621 12.3562 3.36528 17.1524 2.99291 23.2335C2.97332 23.5534 3.23236 23.816 3.5528 23.8183L7.2616 23.844Z" fill="url(#paint0_linear_219_14476)"/>
<circle cx="10.7746" cy="5.24203" r="3.42657" transform="rotate(-19.6718 10.7746 5.24203)" fill="url(#paint1_linear_219_14476)"/>
<path fill-rule="evenodd" clip-rule="evenodd" d="M14.9308 12.4498C14.9312 12.4335 14.9315 12.4173 14.9316 12.401C14.9409 11.058 13.8598 9.96174 12.5168 9.95242C11.1738 9.9431 10.0775 11.0243 10.0682 12.3672C10.0681 12.3831 10.0681 12.3988 10.0683 12.4146C10.0679 12.4172 10.0677 12.4198 10.0677 12.4225C10.0262 18.4087 14.5459 23.3629 20.3743 23.9872C20.9833 24.0524 21.4863 23.5546 21.4906 22.9422L21.509 20.2856C21.5132 19.6786 21.0235 19.1914 20.4261 19.0839C17.2829 18.5184 14.9082 15.7585 14.9311 12.4562C14.9311 12.454 14.931 12.4519 14.9308 12.4498Z" fill="url(#paint2_linear_219_14476)"/>
<path fill-rule="evenodd" clip-rule="evenodd" d="M5.53875 6.67615L5.52637 6.68329C4.8369 5.50635 3.32892 5.09306 2.13346 5.76246C0.923462 6.44001 0.491821 7.97016 1.16936 9.18016C1.25388 9.33109 1.35166 9.46991 1.46043 9.59598C4.86164 14.9177 11.8832 16.6702 17.409 13.4814L17.4583 13.4529L17.4579 13.4522C17.5594 13.4117 17.6595 13.3641 17.7574 13.3093C18.9674 12.6318 19.3991 11.1016 18.7215 9.8916C18.044 8.6816 16.5138 8.24996 15.3038 8.9275C15.1864 8.99323 15.0764 9.06699 14.974 9.1477L14.9573 9.1188L14.9082 9.14742C11.6334 11.0371 7.45133 9.92938 5.53875 6.67615Z" fill="url(#paint3_linear_219_14476)"/>
<defs>
<linearGradient id="paint0_linear_219_14476" x1="8.86251" y1="12.3592" x2="8.78274" y2="23.8545" gradientUnits="userSpaceOnUse">
<stop stop-color="#D032FB"/>
<stop offset="1" stop-color="#A38FFF"/>
</linearGradient>
<linearGradient id="paint1_linear_219_14476" x1="10.7746" y1="1.81547" x2="10.7746" y2="8.6686" gradientUnits="userSpaceOnUse">
<stop stop-color="#FFBD55"/>
<stop offset="1" stop-color="#FE6C3C"/>
</linearGradient>
<linearGradient id="paint2_linear_219_14476" x1="12.8544" y1="16.9902" x2="21.3044" y2="23.9754" gradientUnits="userSpaceOnUse">
<stop stop-color="#FFF693"/>
<stop offset="1" stop-color="#FFEF40"/>
</linearGradient>
<linearGradient id="paint3_linear_219_14476" x1="2.13346" y1="5.76247" x2="18.674" y2="11.6188" gradientUnits="userSpaceOnUse">
<stop stop-color="#FFBD55"/>
<stop offset="1" stop-color="#FE554B"/>
</linearGradient>
</defs>
</svg>
