<svg width="82" height="96" viewBox="0 0 82 96" fill="none" xmlns="http://www.w3.org/2000/svg">
<path d="M22.0886 66.8487C22.7782 66.0848 22.8847 65.1292 22.408 64.2859C20.9639 61.743 18.4878 56.7597 20.5335 55.5428C22.3987 54.4317 26.7771 55.4139 29.4477 56.1744C30.8038 56.5613 32.3311 56.429 33.5299 55.8338C37.6167 53.8101 47.7759 49.8849 58.4858 54.2201C72.3708 59.8416 71.4451 67.1166 71.4451 67.1166C71.4451 67.1166 70.6861 71.7328 68.4737 74.0773C68.0433 74.5337 67.8721 75.0892 68.0526 75.6249C68.8162 77.9165 70.6213 83.8489 69.131 84.6458C67.4787 85.532 62.4939 85.6279 57.1621 82.8039C55.9078 82.1426 54.2463 82.0235 52.8392 82.4997C49.2893 83.7001 42.5829 85.8594 38.0888 86.6629C36.8067 86.8911 35.8672 87.6649 35.7422 88.604C35.3766 91.3652 33.4789 96.5337 24.2362 95.5549C24.2362 95.5549 15.9329 93.1277 18.7516 88.032C19.1589 87.2945 18.3165 86.5141 17.215 86.6034C12.7024 86.9672 4.45931 87.0796 4.79718 82.9891C5.18596 78.2472 10.851 75.8564 15.3914 75.6249C16.8077 75.5522 18.0111 74.871 18.3674 73.8922C19.0895 71.8916 20.4132 68.7137 22.0933 66.852L22.0886 66.8487Z" fill="#4E4C68"/>
<g clip-path="url(#clip0_219_14418)">
<g filter="url(#filter0_d_219_14418)">
<path d="M23.0363 27.4955C23.815 26.4222 23.9352 25.0794 23.3969 23.8947C21.7663 20.3217 18.9703 13.3199 21.2803 11.6101C23.3864 10.049 28.3304 11.4289 31.3459 12.4975C32.8771 13.0411 34.6018 12.8553 35.9553 12.019C40.57 9.1755 52.0415 3.66046 64.1348 9.75163C79.8132 17.6502 78.768 27.8718 78.768 27.8718C78.768 27.8718 77.9109 34.3579 75.4128 37.6521C74.9268 38.2932 74.7334 39.0738 74.9372 39.8265C75.7996 43.0463 77.8378 51.3816 76.1549 52.5013C74.2892 53.7465 68.6606 53.8812 62.6401 49.9134C61.2238 48.9841 59.3476 48.8169 57.7589 49.4859C53.7504 51.1725 46.1777 54.2065 41.1031 55.3355C39.6555 55.6561 38.5946 56.7433 38.4534 58.0628C38.0406 61.9424 35.8979 69.2044 25.4612 67.8291C25.4612 67.8291 16.0855 64.4188 19.2682 57.259C19.7281 56.2229 18.777 55.1264 17.5332 55.2519C12.4376 55.763 3.12987 55.9209 3.51137 50.1736C3.95037 43.5109 10.3472 40.1517 15.474 39.8265C17.0732 39.7243 18.432 38.7672 18.8345 37.3919C19.6497 34.5809 21.1444 30.1159 23.0415 27.5001L23.0363 27.4955Z" fill="white"/>
</g>
<path d="M55.9329 17.548C56.9956 16.7779 57.5393 15.807 57.1473 15.3794C56.7553 14.9517 55.5759 15.2293 54.5132 15.9993C53.4504 16.7693 52.9067 17.7402 53.2987 18.1679C53.6908 18.5955 54.8701 18.318 55.9329 17.548Z" fill="#151E46"/>
<path d="M60.0465 21.3121C61.1524 20.5917 61.7516 19.647 61.3848 19.2019C61.018 18.7569 59.8242 18.9801 58.7183 19.7005C57.6123 20.4209 57.0131 21.3656 57.3799 21.8107C57.7467 22.2557 58.9405 22.0325 60.0465 21.3121Z" fill="#151E46"/>
</g>
<defs>
<filter id="filter0_d_219_14418" x="-0.5" y="7" width="83.2822" height="69" filterUnits="userSpaceOnUse" color-interpolation-filters="sRGB">
<feFlood flood-opacity="0" result="BackgroundImageFix"/>
<feColorMatrix in="SourceAlpha" type="matrix" values="0 0 0 0 0 0 0 0 0 0 0 0 0 0 0 0 0 0 127 0" result="hardAlpha"/>
<feOffset dy="4"/>
<feGaussianBlur stdDeviation="2"/>
<feComposite in2="hardAlpha" operator="out"/>
<feColorMatrix type="matrix" values="0 0 0 0 1 0 0 0 0 1 0 0 0 0 1 0 0 0 0.25 0"/>
<feBlend mode="normal" in2="BackgroundImageFix" result="effect1_dropShadow_219_14418"/>
<feBlend mode="normal" in="SourceGraphic" in2="effect1_dropShadow_219_14418" result="shape"/>
</filter>
<clipPath id="clip0_219_14418">
<rect width="81" height="74.0657" fill="white" transform="translate(0.5)"/>
</clipPath>
</defs>
</svg>
