<svg width="81" height="96" viewBox="0 0 81 96" fill="none" xmlns="http://www.w3.org/2000/svg">
<path d="M21.5886 66.8487C22.2782 66.0848 22.3847 65.1292 21.908 64.2859C20.4639 61.743 17.9878 56.7597 20.0335 55.5428C21.8987 54.4317 26.2771 55.4139 28.9477 56.1744C30.3038 56.5613 31.8311 56.429 33.0299 55.8338C37.1167 53.8101 47.2759 49.8849 57.9858 54.2201C71.8708 59.8416 70.9451 67.1166 70.9451 67.1166C70.9451 67.1166 70.1861 71.7328 67.9737 74.0773C67.5433 74.5337 67.3721 75.0892 67.5526 75.6249C68.3162 77.9165 70.1213 83.8489 68.631 84.6458C66.9787 85.532 61.9939 85.6279 56.6621 82.8039C55.4078 82.1426 53.7463 82.0235 52.3392 82.4997C48.7893 83.7001 42.0829 85.8594 37.5888 86.6629C36.3067 86.8911 35.3672 87.6649 35.2422 88.604C34.8766 91.3652 32.9789 96.5337 23.7362 95.5549C23.7362 95.5549 15.4329 93.1277 18.2516 88.032C18.6589 87.2945 17.8165 86.5141 16.715 86.6034C12.2024 86.9672 3.95931 87.0796 4.29718 82.9891C4.68596 78.2472 10.351 75.8564 14.8914 75.6249C16.3077 75.5522 17.5111 74.871 17.8674 73.8922C18.5895 71.8916 19.9132 68.7137 21.5933 66.852L21.5886 66.8487Z" fill="#4E4C68"/>
<g clip-path="url(#clip0_500_10376)">
<g filter="url(#filter0_d_500_10376)">
<path d="M22.5363 27.4955C23.315 26.4222 23.4352 25.0794 22.8969 23.8947C21.2663 20.3217 18.4703 13.3199 20.7803 11.6101C22.8864 10.049 27.8304 11.4289 30.8459 12.4975C32.3771 13.0411 34.1018 12.8553 35.4553 12.019C40.07 9.1755 51.5415 3.66046 63.6348 9.75163C79.3132 17.6502 78.268 27.8718 78.268 27.8718C78.268 27.8718 77.4109 34.3579 74.9128 37.6521C74.4268 38.2932 74.2334 39.0738 74.4372 39.8265C75.2996 43.0463 77.3378 51.3816 75.6549 52.5013C73.7892 53.7465 68.1606 53.8812 62.1401 49.9134C60.7238 48.9841 58.8476 48.8169 57.2589 49.4859C53.2504 51.1725 45.6777 54.2065 40.6031 55.3355C39.1555 55.6561 38.0946 56.7433 37.9534 58.0628C37.5406 61.9424 35.3979 69.2044 24.9612 67.8291C24.9612 67.8291 15.5855 64.4188 18.7682 57.259C19.2281 56.2229 18.277 55.1264 17.0332 55.2519C11.9376 55.763 2.62987 55.9209 3.01137 50.1736C3.45037 43.5109 9.84719 40.1517 14.974 39.8265C16.5732 39.7243 17.932 38.7672 18.3345 37.3919C19.1497 34.5809 20.6444 30.1159 22.5415 27.5001L22.5363 27.4955Z" fill="white"/>
</g>
<path d="M55.4329 17.548C56.4956 16.7779 57.0393 15.807 56.6473 15.3794C56.2553 14.9517 55.0759 15.2293 54.0132 15.9993C52.9504 16.7693 52.4067 17.7402 52.7987 18.1679C53.1908 18.5955 54.3701 18.318 55.4329 17.548Z" fill="#151E46"/>
<path d="M59.5465 21.3121C60.6524 20.5917 61.2516 19.647 60.8848 19.2019C60.518 18.7569 59.3242 18.9801 58.2183 19.7005C57.1123 20.4209 56.5131 21.3656 56.8799 21.8107C57.2467 22.2557 58.4405 22.0325 59.5465 21.3121Z" fill="#151E46"/>
</g>
<defs>
<filter id="filter0_d_500_10376" x="-1" y="7" width="83.2822" height="69" filterUnits="userSpaceOnUse" color-interpolation-filters="sRGB">
<feFlood flood-opacity="0" result="BackgroundImageFix"/>
<feColorMatrix in="SourceAlpha" type="matrix" values="0 0 0 0 0 0 0 0 0 0 0 0 0 0 0 0 0 0 127 0" result="hardAlpha"/>
<feOffset dy="4"/>
<feGaussianBlur stdDeviation="2"/>
<feComposite in2="hardAlpha" operator="out"/>
<feColorMatrix type="matrix" values="0 0 0 0 1 0 0 0 0 1 0 0 0 0 1 0 0 0 0.25 0"/>
<feBlend mode="normal" in2="BackgroundImageFix" result="effect1_dropShadow_500_10376"/>
<feBlend mode="normal" in="SourceGraphic" in2="effect1_dropShadow_500_10376" result="shape"/>
</filter>
<clipPath id="clip0_500_10376">
<rect width="81" height="74.0657" fill="white"/>
</clipPath>
</defs>
</svg>
