<svg width="103" height="103" viewBox="0 0 103 103" fill="none" xmlns="http://www.w3.org/2000/svg">
<circle cx="51.5" cy="51.5" r="51.5" fill="#151E46"/>
<path d="M42.6797 50.4368C43.0231 52.796 44.2043 54.9527 46.0075 56.5124C47.8106 58.0721 50.115 58.9305 52.4991 58.9305M52.4991 58.9305C54.8832 58.9305 57.1876 58.0721 58.9907 56.5124C60.7938 54.9527 61.9751 52.796 62.3185 50.4368M52.4991 58.9305V63.8996M52.5005 39.0996C51.3729 39.0996 50.2916 39.5475 49.4943 40.3448C48.697 41.1421 48.2491 42.2235 48.2491 43.351V49.0196C48.2491 50.1472 48.697 51.2285 49.4943 52.0258C50.2916 52.8231 51.3729 53.271 52.5005 53.271C53.628 53.271 54.7094 52.8231 55.5067 52.0258C56.304 51.2285 56.7519 50.1472 56.7519 49.0196V43.351C56.7519 42.2235 56.304 41.1421 55.5067 40.3448C54.7094 39.5475 53.628 39.0996 52.5005 39.0996Z" stroke="#F3F08C" stroke-width="2.58333" stroke-linecap="round" stroke-linejoin="round"/>
</svg>
