<svg width="30" height="30" viewBox="0 0 30 30" fill="none" xmlns="http://www.w3.org/2000/svg">
<g id="settings" filter="url(#filter0_d_500_10090)">
<g id="Icon">
<path fill-rule="evenodd" clip-rule="evenodd" d="M16.6763 7.31627C16.2488 5.56124 13.7512 5.56124 13.3237 7.31627C13.2599 7.57999 13.1347 7.82492 12.9583 8.03112C12.7819 8.23732 12.5594 8.39897 12.3087 8.50291C12.0581 8.60684 11.7865 8.65014 11.5159 8.62927C11.2454 8.60839 10.9836 8.52394 10.7519 8.38279C9.20832 7.44227 7.44201 9.20855 8.38254 10.7521C8.99006 11.7488 8.45117 13.0494 7.31713 13.325C5.56096 13.7514 5.56096 16.25 7.31713 16.6753C7.58093 16.7392 7.8259 16.8645 8.03211 17.041C8.23831 17.2175 8.39991 17.4402 8.50375 17.691C8.6076 17.9418 8.65074 18.2135 8.62968 18.4841C8.60862 18.7547 8.52394 19.0165 8.38254 19.2482C7.44201 20.7917 9.20832 22.558 10.7519 21.6175C10.9836 21.4761 11.2454 21.3914 11.516 21.3704C11.7866 21.3493 12.0583 21.3924 12.3091 21.4963C12.5599 21.6001 12.7826 21.7617 12.9591 21.9679C13.1356 22.1741 13.2609 22.4191 13.3248 22.6829C13.7512 24.439 16.2499 24.439 16.6752 22.6829C16.7393 22.4192 16.8647 22.1744 17.0413 21.9684C17.2178 21.7623 17.4405 21.6008 17.6912 21.497C17.9419 21.3932 18.2135 21.35 18.4841 21.3709C18.7546 21.3919 19.0164 21.4764 19.2481 21.6175C20.7917 22.558 22.558 20.7917 21.6175 19.2482C21.4763 19.0165 21.3918 18.7547 21.3709 18.4842C21.35 18.2136 21.3932 17.942 21.497 17.6913C21.6008 17.4406 21.7623 17.2179 21.9683 17.0414C22.1744 16.8648 22.4192 16.7394 22.6829 16.6753C24.439 16.2489 24.439 13.7502 22.6829 13.325C22.4191 13.2611 22.1741 13.1358 21.9679 12.9593C21.7617 12.7828 21.6001 12.5601 21.4962 12.3093C21.3924 12.0585 21.3493 11.7868 21.3703 11.5162C21.3914 11.2456 21.4761 10.9838 21.6175 10.7521C22.558 9.20855 20.7917 7.44227 19.2481 8.38279C19.0164 8.52418 18.7546 8.60886 18.484 8.62992C18.2134 8.65098 17.9417 8.60784 17.6909 8.504C17.4401 8.40016 17.2174 8.23856 17.0409 8.03236C16.8644 7.82616 16.7391 7.58119 16.6752 7.3174L16.6763 7.31627Z" stroke="white" stroke-width="2"/>
<path d="M17 15C17 16.1046 16.1046 17 15 17C13.8954 17 13 16.1046 13 15C13 13.8954 13.8954 13 15 13C16.1046 13 17 13.8954 17 15Z" stroke="white" stroke-width="2"/>
</g>
</g>
<defs>
<filter id="filter0_d_500_10090" x="-2" y="-2" width="34" height="34" filterUnits="userSpaceOnUse" color-interpolation-filters="sRGB">
<feFlood flood-opacity="0" result="BackgroundImageFix"/>
<feColorMatrix in="SourceAlpha" type="matrix" values="0 0 0 0 0 0 0 0 0 0 0 0 0 0 0 0 0 0 127 0" result="hardAlpha"/>
<feOffset/>
<feGaussianBlur stdDeviation="2.5"/>
<feComposite in2="hardAlpha" operator="out"/>
<feColorMatrix type="matrix" values="0 0 0 0 1 0 0 0 0 1 0 0 0 0 1 0 0 0 1 0"/>
<feBlend mode="normal" in2="BackgroundImageFix" result="effect1_dropShadow_500_10090"/>
<feBlend mode="normal" in="SourceGraphic" in2="effect1_dropShadow_500_10090" result="shape"/>
</filter>
</defs>
</svg>
