<svg width="60" height="51" viewBox="0 0 60 51" fill="none" xmlns="http://www.w3.org/2000/svg">
<g filter="url(#filter0_d_500_10150)">
<rect x="4.5" y="0.5" width="51" height="39" rx="19.5" fill="white"/>
<rect x="4.5" y="0.5" width="51" height="39" rx="19.5" stroke="white"/>
<path d="M10.5 41.0858V28C10.5 27.2864 11.2259 26.8025 11.8846 27.0769L21.1216 30.9257C21.7787 31.1994 21.9474 32.0526 21.4441 32.5559L12.2071 41.7929C11.5771 42.4229 10.5 41.9767 10.5 41.0858Z" fill="white"/>
</g>
<path d="M22.6875 14.75L29.3596 19.5403C29.7449 19.8168 30.2551 19.8168 30.6404 19.5403L37.3125 14.75M23.25 27H36.75C37.9926 27 39 25.9553 39 24.6667V15.3333C39 14.0447 37.9926 13 36.75 13H23.25C22.0074 13 21 14.0447 21 15.3333V24.6667C21 25.9553 22.0074 27 23.25 27Z" stroke="#151E46" stroke-width="2" stroke-linecap="round" stroke-linejoin="round"/>
<defs>
<filter id="filter0_d_500_10150" x="0" y="0" width="60" height="50.0879" filterUnits="userSpaceOnUse" color-interpolation-filters="sRGB">
<feFlood flood-opacity="0" result="BackgroundImageFix"/>
<feColorMatrix in="SourceAlpha" type="matrix" values="0 0 0 0 0 0 0 0 0 0 0 0 0 0 0 0 0 0 127 0" result="hardAlpha"/>
<feOffset dy="4"/>
<feGaussianBlur stdDeviation="2"/>
<feComposite in2="hardAlpha" operator="out"/>
<feColorMatrix type="matrix" values="0 0 0 0 1 0 0 0 0 1 0 0 0 0 1 0 0 0 0.25 0"/>
<feBlend mode="normal" in2="BackgroundImageFix" result="effect1_dropShadow_500_10150"/>
<feBlend mode="normal" in="SourceGraphic" in2="effect1_dropShadow_500_10150" result="shape"/>
</filter>
</defs>
</svg>
