<svg width="54" height="41" viewBox="0 0 54 41" fill="none" xmlns="http://www.w3.org/2000/svg">
<ellipse cx="27" cy="31.916" rx="26.5" ry="9" fill="#4E4C68"/>
<g filter="url(#filter0_d_219_14438)">
<path d="M15.5917 22.5236C15.7961 22.365 15.8848 22.1015 15.8203 21.8488C15.296 19.8028 13.5001 10.7426 21.5817 6.94105C30.7226 2.63945 36.9062 10.4361 36.9062 10.4361C36.9062 10.4361 41.4578 16.3266 39.0731 23.029C39.0624 23.0559 39.0516 23.0855 39.0382 23.1124C38.8984 23.392 38.9763 23.7307 39.2237 23.9243C40.1727 24.6637 42.2644 26.6074 41.2105 28.7179C40.1566 30.8284 36.9707 28.7018 35.7689 27.7608C35.5082 27.5565 35.1371 27.5726 34.9006 27.8065C33.9811 28.7152 31.4727 30.6913 27.4991 30.0622C24.5498 29.5971 22.4958 28.7717 21.2887 28.1587C20.4875 27.7527 19.5304 27.7662 18.7615 28.2313C17.3581 29.0782 15.0164 30.038 13.2527 28.4491C10.9863 26.4085 14.4518 23.4135 15.5971 22.5236H15.5917Z" fill="white"/>
<path d="M27.0904 18.3702C27.1245 17.6657 26.8937 17.0821 26.5748 17.0667C26.2559 17.0513 25.9698 17.6098 25.9357 18.3143C25.9017 19.0188 26.1325 19.6024 26.4514 19.6178C26.7702 19.6332 27.0564 19.0746 27.0904 18.3702Z" fill="black"/>
<path d="M29.5862 18.5242C29.6565 17.8225 29.4559 17.2278 29.1383 17.1959C28.8207 17.1641 28.5062 17.7072 28.4359 18.409C28.3656 19.1108 28.5661 19.7055 28.8837 19.7373C29.2014 19.7691 29.5159 19.226 29.5862 18.5242Z" fill="black"/>
</g>
<path d="M26.0541 2.39629C26.0541 2.39629 21.4906 0.295038 20.6663 4.01264C19.842 7.73024 24.2761 9.19034 26.4798 9.70757C27.2772 9.89615 28.123 9.71835 28.7642 9.20112C30.0034 8.20437 31.8029 6.16777 31.442 2.92969C30.9032 -1.91936 25.5153 0.235772 26.0541 2.3909" fill="#FFF693"/>
<defs>
<filter id="filter0_d_219_14438" x="8.5" y="5.64551" width="37" height="32.5381" filterUnits="userSpaceOnUse" color-interpolation-filters="sRGB">
<feFlood flood-opacity="0" result="BackgroundImageFix"/>
<feColorMatrix in="SourceAlpha" type="matrix" values="0 0 0 0 0 0 0 0 0 0 0 0 0 0 0 0 0 0 127 0" result="hardAlpha"/>
<feOffset dy="4"/>
<feGaussianBlur stdDeviation="2"/>
<feComposite in2="hardAlpha" operator="out"/>
<feColorMatrix type="matrix" values="0 0 0 0 1 0 0 0 0 1 0 0 0 0 1 0 0 0 0.25 0"/>
<feBlend mode="normal" in2="BackgroundImageFix" result="effect1_dropShadow_219_14438"/>
<feBlend mode="normal" in="SourceGraphic" in2="effect1_dropShadow_219_14438" result="shape"/>
</filter>
</defs>
</svg>
