<svg width="97" height="140" viewBox="0 0 97 140" fill="none" xmlns="http://www.w3.org/2000/svg">
<path d="M22.0886 110.848C22.7782 110.084 22.8847 109.129 22.408 108.285C20.9639 105.743 18.4878 100.759 20.5335 99.5423C22.3987 98.4312 26.7771 99.4134 29.4477 100.174C30.8038 100.561 32.3311 100.429 33.5299 99.8333C37.6167 97.8096 47.7759 93.8844 58.4858 98.2196C72.3708 103.841 71.4451 111.116 71.4451 111.116C71.4451 111.116 70.6861 115.732 68.4737 118.077C68.0433 118.533 67.8721 119.089 68.0526 119.624C68.8162 121.916 70.6213 127.848 69.131 128.645C67.4787 129.532 62.4939 129.627 57.1621 126.803C55.9078 126.142 54.2463 126.023 52.8392 126.499C49.2893 127.7 42.5829 129.859 38.0888 130.662C36.8067 130.891 35.8672 131.664 35.7422 132.604C35.3766 135.365 33.4789 140.533 24.2362 139.554C24.2362 139.554 15.9329 137.127 18.7516 132.031C19.1589 131.294 18.3165 130.514 17.215 130.603C12.7024 130.967 4.45931 131.079 4.79718 126.989C5.18596 122.247 10.851 119.856 15.3914 119.624C16.8077 119.552 18.0111 118.87 18.3674 117.892C19.0895 115.891 20.4132 112.713 22.0933 110.852L22.0886 110.848Z" fill="#4E4C68"/>
<g clip-path="url(#clip0_693_10222)">
<g filter="url(#filter0_d_693_10222)">
<path d="M23.0363 71.4955C23.815 70.4222 23.9352 69.0794 23.3969 67.8947C21.7663 64.3217 18.9703 57.3199 21.2803 55.6101C23.3864 54.049 28.3304 55.4289 31.3459 56.4975C32.8771 57.0411 34.6018 56.8553 35.9553 56.019C40.57 53.1755 52.0415 47.6605 64.1348 53.7516C79.8132 61.6502 78.768 71.8718 78.768 71.8718C78.768 71.8718 77.9109 78.3579 75.4128 81.6521C74.9268 82.2932 74.7334 83.0738 74.9372 83.8265C75.7996 87.0463 77.8378 95.3816 76.1549 96.5013C74.2892 97.7465 68.6606 97.8812 62.6401 93.9134C61.2238 92.9841 59.3476 92.8169 57.7589 93.4859C53.7504 95.1725 46.1777 98.2065 41.1031 99.3355C39.6555 99.6561 38.5946 100.743 38.4534 102.063C38.0406 105.942 35.8979 113.204 25.4612 111.829C25.4612 111.829 16.0855 108.419 19.2682 101.259C19.7281 100.223 18.777 99.1264 17.5332 99.2519C12.4376 99.763 3.12987 99.9209 3.51137 94.1736C3.95037 87.5109 10.3472 84.1517 15.474 83.8265C17.0732 83.7243 18.432 82.7672 18.8345 81.3919C19.6497 78.5809 21.1444 74.1159 23.0415 71.5001L23.0363 71.4955Z" fill="white"/>
</g>
<path d="M55.9329 61.548C56.9956 60.7779 57.5393 59.807 57.1473 59.3794C56.7553 58.9517 55.5759 59.2293 54.5132 59.9993C53.4504 60.7693 52.9067 61.7402 53.2987 62.1679C53.6908 62.5955 54.8701 62.318 55.9329 61.548Z" fill="#151E46"/>
<path d="M60.0465 65.3121C61.1524 64.5917 61.7516 63.647 61.3848 63.2019C61.018 62.7569 59.8242 62.9801 58.7183 63.7005C57.6123 64.4209 57.0131 65.3656 57.3799 65.8107C57.7467 66.2557 58.9405 66.0325 60.0465 65.3121Z" fill="#151E46"/>
</g>
<g filter="url(#filter1_d_693_10222)">
<rect x="41" y="0.5" width="51" height="39" rx="19.5" fill="white"/>
<rect x="41" y="0.5" width="51" height="39" rx="19.5" stroke="white"/>
<path d="M59.1875 14.75L65.8596 19.5403C66.2449 19.8168 66.7551 19.8168 67.1404 19.5403L73.8125 14.75M59.75 27H73.25C74.4926 27 75.5 25.9553 75.5 24.6667V15.3333C75.5 14.0447 74.4926 13 73.25 13H59.75C58.5074 13 57.5 14.0447 57.5 15.3333V24.6667C57.5 25.9553 58.5074 27 59.75 27Z" stroke="#151E46" stroke-width="2" stroke-linecap="round" stroke-linejoin="round"/>
<path d="M47 41.0858V28C47 27.2864 47.7259 26.8025 48.3846 27.0769L57.6216 30.9257C58.2787 31.1994 58.4474 32.0526 57.9441 32.5559L48.7071 41.7929C48.0771 42.4229 47 41.9767 47 41.0858Z" fill="white"/>
</g>
<defs>
<filter id="filter0_d_693_10222" x="-0.5" y="51" width="83.2822" height="69" filterUnits="userSpaceOnUse" color-interpolation-filters="sRGB">
<feFlood flood-opacity="0" result="BackgroundImageFix"/>
<feColorMatrix in="SourceAlpha" type="matrix" values="0 0 0 0 0 0 0 0 0 0 0 0 0 0 0 0 0 0 127 0" result="hardAlpha"/>
<feOffset dy="4"/>
<feGaussianBlur stdDeviation="2"/>
<feComposite in2="hardAlpha" operator="out"/>
<feColorMatrix type="matrix" values="0 0 0 0 1 0 0 0 0 1 0 0 0 0 1 0 0 0 0.25 0"/>
<feBlend mode="normal" in2="BackgroundImageFix" result="effect1_dropShadow_693_10222"/>
<feBlend mode="normal" in="SourceGraphic" in2="effect1_dropShadow_693_10222" result="shape"/>
</filter>
<filter id="filter1_d_693_10222" x="36.5" y="0" width="60" height="50.0879" filterUnits="userSpaceOnUse" color-interpolation-filters="sRGB">
<feFlood flood-opacity="0" result="BackgroundImageFix"/>
<feColorMatrix in="SourceAlpha" type="matrix" values="0 0 0 0 0 0 0 0 0 0 0 0 0 0 0 0 0 0 127 0" result="hardAlpha"/>
<feOffset dy="4"/>
<feGaussianBlur stdDeviation="2"/>
<feComposite in2="hardAlpha" operator="out"/>
<feColorMatrix type="matrix" values="0 0 0 0 1 0 0 0 0 1 0 0 0 0 1 0 0 0 0.25 0"/>
<feBlend mode="normal" in2="BackgroundImageFix" result="effect1_dropShadow_693_10222"/>
<feBlend mode="normal" in="SourceGraphic" in2="effect1_dropShadow_693_10222" result="shape"/>
</filter>
<clipPath id="clip0_693_10222">
<rect width="81" height="74.0657" fill="white" transform="translate(0.5 44)"/>
</clipPath>
</defs>
</svg>
